<svg width="38" height="39" viewBox="0 0 38 39" fill="none" xmlns="http://www.w3.org/2000/svg">
<path d="M31.5227 0H6.47727C2.89997 0 0 2.66067 0 5.94277V32.8833C0 36.1654 2.89997 38.8261 6.47727 38.8261H31.5227C35.1 38.8261 38 36.1654 38 32.8833V5.94277C38 2.66067 35.1 0 31.5227 0Z" fill="#F9FAFB"/>
<path d="M18.9499 34.4102C27.2124 34.4102 33.9105 27.6726 33.9105 19.3614C33.9105 11.0501 27.2124 4.3125 18.9499 4.3125C10.6874 4.3125 3.98926 11.0501 3.98926 19.3614C3.98926 27.6726 10.6874 34.4102 18.9499 34.4102Z" fill="#0D3DDE"/>
<path d="M15.7896 22.3895L24.9505 13.1663C25.1666 12.9487 25.4189 12.8398 25.7071 12.8398C25.9953 12.8398 26.2476 12.9487 26.4637 13.1663C26.6799 13.384 26.788 13.6426 26.788 13.9423C26.788 14.2419 26.6799 14.5002 26.4637 14.7171L16.5463 24.7293C16.3301 24.947 16.0779 25.0558 15.7896 25.0558C15.5014 25.0558 15.2492 24.947 15.033 24.7293L10.385 20.0497C10.1689 19.8321 10.0651 19.5738 10.0737 19.2749C10.0824 18.9759 10.1952 18.7173 10.4121 18.4989C10.629 18.2805 10.8859 18.1717 11.1828 18.1724C11.4797 18.1731 11.7362 18.282 11.9524 18.4989L15.7896 22.3895Z" fill="#F8FBFF"/>
</svg>
